<svg id="Ebene_1" data-name="Ebene 1" xmlns="http://www.w3.org/2000/svg" xmlns:xlink="http://www.w3.org/1999/xlink"
    viewBox="0 0 317.76 149.17">
    <defs>
        <clipPath id="clip-path" transform="translate(-127.45 -187.02)">
            <rect x="110.11" y="161.44" width="349.43" height="198.26" style="fill:none" />
        </clipPath>
    </defs>
    <path d="M289.52,255" transform="translate(-127.45 -187.02)" style="fill:none;stroke:#1d1d1b" />
    <path d="M289.52,274.19" transform="translate(-127.45 -187.02)" style="fill:none;stroke:#1d1d1b" />
    <g style="clip-path:url(#clip-path)">
        <path
            d="M423.66,250.59a23.22,23.22,0,1,1-23.21-23.22,23.22,23.22,0,0,1,23.21,23.22m21.06,57.75V192.84a5.33,5.33,0,0,0-5.33-5.32h-63a6.68,6.68,0,0,0-6.32,5.23L348,308.43a4.24,4.24,0,0,0,4.33,5.23h87.06a5.33,5.33,0,0,0,5.33-5.32"
            transform="translate(-127.45 -187.02)" style="fill:#1d1d1b" />
        <path
            d="M423.66,250.59a23.22,23.22,0,1,1-23.21-23.22A23.22,23.22,0,0,1,423.66,250.59Zm21.06,57.75V192.84a5.33,5.33,0,0,0-5.33-5.32h-63a6.68,6.68,0,0,0-6.32,5.23L348,308.43a4.24,4.24,0,0,0,4.33,5.23h87.06A5.33,5.33,0,0,0,444.72,308.34Z"
            transform="translate(-127.45 -187.02)" style="fill:none;stroke:#1d1d1b" />
        <path
            d="M235.79,243.42a4.61,4.61,0,0,0,.75-2.67,4.26,4.26,0,0,0-2.1-4c-1-.62-2.91-.92-5.67-.92h-2.52v9.61h2.84a15.29,15.29,0,0,0,4.65-.48,4.16,4.16,0,0,0,2-1.58m60.86-8-6.24,5.94q-6.36-6.72-14.31-6.73a15.69,15.69,0,0,0-15.91,15.91,16.73,16.73,0,0,0,2,8.32,14.62,14.62,0,0,0,5.76,5.7,16.7,16.7,0,0,0,8.27,2.07,17,17,0,0,0,7.09-1.45,25.38,25.38,0,0,0,7.06-5.27l6,6.3a33.21,33.21,0,0,1-9.81,7,26.88,26.88,0,0,1-10.54,1.95q-10.92,0-17.87-6.92t-7-17.75a24.22,24.22,0,0,1,3.17-12.45,23.44,23.44,0,0,1,9.07-8.75A25.58,25.58,0,0,1,276.24,226a26.93,26.93,0,0,1,20.41,9.41m-51.48,5.36a12.75,12.75,0,0,1-2.57,8.15,13.35,13.35,0,0,1-6.95,4.52q-2.58.74-9.4.73V274h-8.91V227.17h9.46q7.66,0,11.06,1.42a11.31,11.31,0,0,1,5.35,4.58,14.25,14.25,0,0,1,2,7.6m-34.68-13.6L193.61,274H185l-16.58-46.84h9.16l11.78,33.28,12-33.28Zm134.88-39.65H133.27a5.32,5.32,0,0,0-5.32,5.32v115.5a5.32,5.32,0,0,0,5.32,5.32H320.62a6.74,6.74,0,0,0,6.35-5.22l22.7-115.7a4.21,4.21,0,0,0-4.3-5.22"
            transform="translate(-127.45 -187.02)" style="fill:#1d1d1b" />
        <path
            d="M235.79,243.42a4.61,4.61,0,0,0,.75-2.67,4.26,4.26,0,0,0-2.1-4c-1-.62-2.91-.92-5.67-.92h-2.52v9.61h2.84a15.29,15.29,0,0,0,4.65-.48A4.16,4.16,0,0,0,235.79,243.42Zm60.86-8-6.24,5.94q-6.36-6.72-14.31-6.73a15.69,15.69,0,0,0-15.91,15.91,16.73,16.73,0,0,0,2,8.32,14.62,14.62,0,0,0,5.76,5.7,16.7,16.7,0,0,0,8.27,2.07,17,17,0,0,0,7.09-1.45,25.38,25.38,0,0,0,7.06-5.27l6,6.3a33.21,33.21,0,0,1-9.81,7,26.88,26.88,0,0,1-10.54,1.95q-10.92,0-17.87-6.92t-7-17.75a24.22,24.22,0,0,1,3.17-12.45,23.44,23.44,0,0,1,9.07-8.75A25.58,25.58,0,0,1,276.24,226a26.93,26.93,0,0,1,20.41,9.41Zm-51.48,5.36a12.75,12.75,0,0,1-2.57,8.15,13.35,13.35,0,0,1-6.95,4.52q-2.58.74-9.4.73V274h-8.91V227.17h9.46q7.66,0,11.06,1.42a11.31,11.31,0,0,1,5.35,4.58A14.25,14.25,0,0,1,245.17,240.77Zm-34.68-13.6L193.61,274H185l-16.58-46.84h9.16l11.78,33.28,12-33.28Zm134.88-39.65H133.27a5.32,5.32,0,0,0-5.32,5.32v115.5a5.32,5.32,0,0,0,5.32,5.32H320.62a6.74,6.74,0,0,0,6.35-5.22l22.7-115.7A4.21,4.21,0,0,0,345.37,187.52Z"
            transform="translate(-127.45 -187.02)" style="fill:none;stroke:#1d1d1b" />
        <path
            d="M157.9,306.62c-2.94,0-5.32,3.18-5.32,7.1v13.86c0,3.92,2.38,7.1,5.32,7.1h138c2.94,0,5.33-3.18,5.33-7.1V313.72c0-3.92-2.39-7.1-5.33-7.1Z"
            transform="translate(-127.45 -187.02)" style="fill:none;stroke:#1d1d1b;stroke-width:3px" />
    </g>
</svg>