<?xml version="1.0" encoding="UTF-8" standalone="no"?>
<!DOCTYPE svg PUBLIC "-//W3C//DTD SVG 1.1//EN" "http://www.w3.org/Graphics/SVG/1.1/DTD/svg11.dtd">
<svg version="1.1" xmlns="http://www.w3.org/2000/svg" xmlns:xlink="http://www.w3.org/1999/xlink" preserveAspectRatio="xMidYMid meet" viewBox="0 0 640 640" width="1024" height="1024"><defs><path d="M167.02 212.77L134.81 302.8L104.8 212.77" id="c23ZlryXlx"></path><path d="M218.26 257.78L175.8 257.78L218.26 257.78Z" id="b1NRvEPVRu"></path><path d="M218.26 212.77L175.8 212.77L218.26 212.77Z" id="b82JRmRrKh"></path><path d="M218.26 302.8L175.8 302.8L218.26 302.8Z" id="a1BKrHbmSC"></path><path d="M232.9 302.8L232.9 212.77L232.9 302.8Z" id="bXzz13GS6"></path><path d="M270.23 212.77L270.23 302.8L232.9 212.77" id="f2cKoCTdbh"></path><path d="M289.34 302.8L289.34 212.77L289.34 302.8Z" id="b1hjPKwMjP"></path><path d="M289.34 212.77C320 212.97 335.09 227.97 334.6 257.78C334.11 287.59 319.76 302.6 291.53 302.8" id="a1KhKuzx2y"></path><path d="M350.66 302.8L350.66 212.77L350.66 302.8Z" id="a1IciP26y8"></path><path d="M350.66 257.78C376.45 263.01 389.34 255.64 389.34 235.69C389.34 215.74 376.45 208.1 350.66 212.77" id="b6KSnZ2T2Q"></path><path d="M389.34 302.8L350.66 257.78L389.34 302.8Z" id="fACMQWQ"></path><path d="M418.08 302.8L418.08 212.77L418.08 302.8Z" id="b6bQa5Ma1"></path><path d="M467.57 301.7L439.11 213.86L467.57 301.7Z" id="gFTU2xe0L"></path><path d="M467.57 213.86L439.11 301.7L467.57 213.86Z" id="a3bko2POxW"></path></defs><g><g><g><g><use xlink:href="#c23ZlryXlx" opacity="1" fill-opacity="0" stroke="#000000" stroke-width="1" stroke-opacity="1"></use></g></g><g><g><use xlink:href="#b1NRvEPVRu" opacity="1" fill-opacity="0" stroke="#000000" stroke-width="1" stroke-opacity="1"></use></g></g><g><g><use xlink:href="#b82JRmRrKh" opacity="1" fill-opacity="0" stroke="#000000" stroke-width="1" stroke-opacity="1"></use></g></g><g><g><use xlink:href="#a1BKrHbmSC" opacity="1" fill-opacity="0" stroke="#000000" stroke-width="1" stroke-opacity="1"></use></g></g><g><g><use xlink:href="#bXzz13GS6" opacity="1" fill-opacity="0" stroke="#000000" stroke-width="1" stroke-opacity="1"></use></g></g><g><g><use xlink:href="#f2cKoCTdbh" opacity="1" fill-opacity="0" stroke="#000000" stroke-width="1" stroke-opacity="1"></use></g></g><g><g><use xlink:href="#b1hjPKwMjP" opacity="1" fill-opacity="0" stroke="#000000" stroke-width="1" stroke-opacity="1"></use></g></g><g><g><use xlink:href="#a1KhKuzx2y" opacity="1" fill-opacity="0" stroke="#000000" stroke-width="1" stroke-opacity="1"></use></g></g><g><g><use xlink:href="#a1IciP26y8" opacity="1" fill-opacity="0" stroke="#000000" stroke-width="1" stroke-opacity="1"></use></g></g><g><g><use xlink:href="#b6KSnZ2T2Q" opacity="1" fill-opacity="0" stroke="#000000" stroke-width="1" stroke-opacity="1"></use></g></g><g><g><use xlink:href="#fACMQWQ" opacity="1" fill-opacity="0" stroke="#000000" stroke-width="1" stroke-opacity="1"></use></g></g><g><g><use xlink:href="#b6bQa5Ma1" opacity="1" fill-opacity="0" stroke="#000000" stroke-width="1" stroke-opacity="1"></use></g></g><g><g><use xlink:href="#gFTU2xe0L" opacity="1" fill-opacity="0" stroke="#000000" stroke-width="1" stroke-opacity="1"></use></g></g><g><g><use xlink:href="#a3bko2POxW" opacity="1" fill-opacity="0" stroke="#000000" stroke-width="1" stroke-opacity="1"></use></g></g></g></g></svg>